<svg width="82" height="82" viewBox="0 0 82 82" fill="none" xmlns="http://www.w3.org/2000/svg">
<circle cx="41.1098" cy="40.721" r="40.5937" fill="black" fill-opacity="0.3"/>
<path d="M36.6889 53.9838V27.4583C36.6889 25.0167 34.7096 23.0374 32.268 23.0374C29.8264 23.0374 27.847 25.0167 27.847 27.4583V53.9838C27.847 56.4254 29.8264 58.4047 32.268 58.4047C34.7096 58.4047 36.6889 56.4254 36.6889 53.9838Z" fill="white"/>
<path d="M54.3725 53.9838V27.4583C54.3725 25.0167 52.3932 23.0374 49.9516 23.0374C47.51 23.0374 45.5307 25.0167 45.5307 27.4583V53.9838C45.5307 56.4254 47.51 58.4047 49.9516 58.4047C52.3932 58.4047 54.3725 56.4254 54.3725 53.9838Z" fill="white"/>
</svg>
