<svg width="82" height="82" viewBox="0 0 82 82" fill="none" xmlns="http://www.w3.org/2000/svg">
<path d="M29.7021 23C28.8405 22.9999 28.2925 22.9999 27.8137 23.0471C23.1744 23.504 19.504 27.1744 19.0471 31.8137C18.9999 32.2925 18.9999 32.8404 19 33.702L19 33.8C19 34.6521 19.6908 35.3429 20.5429 35.3429C21.395 35.3429 22.0857 34.6521 22.0857 33.8C22.0857 32.8081 22.0876 32.424 22.1179 32.1161C22.4306 28.9419 24.9419 26.4306 28.1161 26.1179C28.424 26.0876 28.8081 26.0857 29.8 26.0857H45.2286C49.1512 26.0857 51.9379 26.089 54.052 26.3732C56.1216 26.6515 57.3141 27.1733 58.1847 28.0439C59.0553 28.9145 59.5771 30.1069 59.8554 32.1766C60.1396 34.2907 60.1429 37.0774 60.1429 41C60.1429 44.9226 60.1396 47.7094 59.8554 49.8234C59.5771 51.8931 59.0553 53.0855 58.1847 53.9561C57.3141 54.8267 56.1216 55.3485 54.052 55.6268C51.9379 55.911 49.1512 55.9143 45.2286 55.9143C44.3765 55.9143 43.6857 56.605 43.6857 57.4571C43.6857 58.3092 44.3765 59 45.2286 59H45.3446C49.1251 59 52.1196 59.0001 54.4631 58.685C56.875 58.3607 58.8271 57.6775 60.3666 56.138C61.9061 54.5985 62.5893 52.6464 62.9136 50.2346C63.2286 47.8911 63.2286 44.8966 63.2286 41.1161V40.884C63.2286 37.1035 63.2286 34.109 62.9136 31.7654C62.5893 29.3536 61.9061 27.4015 60.3666 25.862C58.8271 24.3225 56.875 23.6393 54.4631 23.315C52.1196 23 49.1252 23 45.3446 23L29.7021 23Z" fill="white"/>
<path d="M20.5429 37.4C19.6908 37.4 19 38.0908 19 38.9429C19 39.795 19.6908 40.4857 20.5429 40.4857C29.9159 40.4857 37.5143 48.0841 37.5143 57.4571C37.5143 58.3092 38.2051 59 39.0571 59C39.9092 59 40.6 58.3092 40.6 57.4571C40.6 46.3799 31.6201 37.4 20.5429 37.4Z" fill="white"/>
<path d="M19 45.1143C19 44.2622 19.6908 43.5714 20.5429 43.5714C28.2117 43.5714 34.4286 49.7883 34.4286 57.4571C34.4286 58.3092 33.7378 59 32.8857 59C32.0336 59 31.3429 58.3092 31.3429 57.4571C31.3429 51.4925 26.5075 46.6571 20.5429 46.6571C19.6908 46.6571 19 45.9664 19 45.1143Z" fill="white"/>
<path d="M20.5429 49.7429C19.6908 49.7429 19 50.4336 19 51.2857C19 52.1378 19.6908 52.8286 20.5429 52.8286C23.0992 52.8286 25.1714 54.9009 25.1714 57.4571C25.1714 58.3092 25.8622 59 26.7143 59C27.5664 59 28.2572 58.3092 28.2572 57.4571C28.2572 53.1967 24.8033 49.7429 20.5429 49.7429Z" fill="white"/>
</svg>
