<svg width="82" height="82" viewBox="0 0 82 82" fill="none" xmlns="http://www.w3.org/2000/svg">
<circle cx="40.9288" cy="41.0844" r="40.5937" fill="black" fill-opacity="0.3"/>
<path d="M45.8955 18.587C46.8074 18.0605 48.0913 18.2634 48.7089 19.3331L54.2472 28.9256C54.6492 29.6219 54.4105 30.5118 53.7145 30.9136L44.1351 36.4443C43.0647 37.0623 41.8504 36.5957 41.3235 35.6831C41.0717 35.247 40.9766 34.7087 41.1294 34.1384L42.3825 29.4578C39.6487 29.0076 36.7937 29.4725 34.3314 30.8941C28.5398 34.2379 26.5463 41.6734 29.8909 47.4664C33.2355 53.2594 40.6674 55.2496 46.4597 51.9054C51.2684 49.1291 50.8859 45.9916 52.573 45.0175C53.788 44.3161 55.2458 44.7928 55.8881 45.9053C57.2182 48.209 53.1965 53.6316 48.896 56.1145C40.7828 60.7987 30.3603 58.006 25.6761 49.8928C20.992 41.7796 23.7973 31.3744 31.9105 26.6902C35.5003 24.6176 39.6668 23.9995 43.6335 24.7662L44.955 19.8278C45.1079 19.2574 45.4616 18.8375 45.8955 18.587Z" fill="white"/>
</svg>
