<svg width="82" height="82" viewBox="0 0 82 82" fill="none" xmlns="http://www.w3.org/2000/svg">
<path d="M55.8793 43.7931C55.6032 43.7931 55.3802 44.0171 55.3711 44.293C55.2779 47.1188 54.3968 49.8661 52.8223 52.2224C51.1551 54.7175 48.7855 56.6622 46.0131 57.8106C43.2407 58.9589 40.1901 59.2594 37.2469 58.674C34.3038 58.0885 31.6003 56.6435 29.4784 54.5216C27.3565 52.3997 25.9115 49.6962 25.326 46.7531C24.7406 43.8099 25.0411 40.7593 26.1894 37.9869C27.3378 35.2145 29.2825 32.8449 31.7776 31.1777C34.2727 29.5105 37.2061 28.6207 40.2069 28.6207H45.7759C46.052 28.6207 46.2759 28.8445 46.2759 29.1207V34.9998C46.2759 35.4452 46.8144 35.6683 47.1294 35.3533L55.0258 27.457C55.221 27.2617 55.221 26.9452 55.0258 26.7499L47.1294 18.8536C46.8144 18.5386 46.2759 18.7617 46.2759 19.2071V25.0862C46.2759 25.3623 46.052 25.5862 45.7759 25.5862H40.2069C36.6059 25.5862 33.0858 26.654 30.0917 28.6546C27.0976 30.6552 24.764 33.4987 23.3859 36.8256C22.0079 40.1525 21.6473 43.8133 22.3498 47.3451C23.0524 50.8769 24.7864 54.121 27.3327 56.6673C29.879 59.2136 33.1231 60.9476 36.6549 61.6502C40.1867 62.3527 43.8475 61.9921 47.1744 60.6141C50.5013 59.236 53.3448 56.9024 55.3454 53.9083C57.2533 51.0529 58.3128 47.7192 58.4069 44.2931C58.4145 44.0171 58.1899 43.7931 57.9138 43.7931H55.8793Z" fill="white"/>
<path d="M44.449 50.7676C43.7937 50.7825 43.1436 50.6555 42.5506 50.3967C42.0241 50.1491 41.5709 49.7858 41.2307 49.3387C40.8578 48.817 40.596 48.234 40.4595 47.6212C40.2843 46.8626 40.1997 46.0885 40.2074 45.3128C40.2014 44.5372 40.2859 43.7633 40.4595 43.0045C40.5987 42.3925 40.8603 41.81 41.2307 41.287C41.5709 40.8399 42.0241 40.4766 42.5506 40.229C43.1436 39.9702 43.7937 39.8432 44.449 39.8581C45.0651 39.8146 45.6831 39.9181 46.2438 40.1586C46.8046 40.3991 47.2895 40.7687 47.6524 41.2321C48.4172 42.4506 48.7782 43.8507 48.6906 45.2579C48.7782 46.6651 48.4172 48.0651 47.6524 49.2837C47.3033 49.7673 46.8244 50.1584 46.2628 50.4186C45.7011 50.6788 45.076 50.7991 44.449 50.7676V50.7676ZM44.449 49.0914C44.748 49.1079 45.0459 49.0457 45.3084 48.912C45.5708 48.7783 45.787 48.5784 45.9321 48.3357C46.2865 47.693 46.4744 46.9826 46.4808 46.2609V44.3648C46.5129 43.6561 46.3656 42.9503 46.0507 42.3038C45.8849 42.0685 45.6584 41.8752 45.3917 41.7414C45.125 41.6076 44.8265 41.5375 44.5231 41.5375C44.2198 41.5375 43.9213 41.6076 43.6546 41.7414C43.3879 41.8752 43.1614 42.0685 42.9956 42.3038C42.6807 42.9503 42.5334 43.6561 42.5655 44.3648V46.2609C42.5349 46.9739 42.6821 47.6839 42.9956 48.3357C43.137 48.5752 43.3483 48.773 43.6053 48.9066C43.8623 49.0402 44.1546 49.1043 44.449 49.0914V49.0914Z" fill="white"/>
<path d="M32.2474 50.7725V49.1049H34.8671V41.7704L32.4307 43.1836L31.7103 41.6856L34.7492 39.8484H36.6616V49.0343H38.9931V50.7725H32.2474Z" fill="white"/>
</svg>
