<svg width="30" height="37" viewBox="0 0 30 37" fill="none" xmlns="http://www.w3.org/2000/svg">
<path d="M28 21.25C27.7239 21.25 27.501 21.474 27.49 21.7499C27.3981 24.0469 26.6742 26.2778 25.3934 28.1946C24.0199 30.2502 22.0676 31.8524 19.7835 32.7985C17.4995 33.7446 14.9861 33.9921 12.5614 33.5098C10.1366 33.0275 7.90933 31.837 6.16117 30.0888C4.41302 28.3407 3.22251 26.1134 2.74019 23.6886C2.25788 21.2639 2.50542 18.7505 3.45151 16.4665C4.39761 14.1824 5.99976 12.2301 8.05538 10.8566C10.111 9.48311 12.5277 8.75 15 8.75H19.5C19.7761 8.75 20 8.97386 20 9.25V13.7929C20 14.2383 20.5386 14.4614 20.8536 14.1464L27.1464 7.85355C27.3417 7.65829 27.3417 7.34171 27.1464 7.14645L20.8536 0.853553C20.5386 0.538571 20 0.761654 20 1.20711V5.75C20 6.02614 19.7761 6.25 19.5 6.25H15C12.0333 6.25 9.13319 7.12973 6.66645 8.77795C4.19972 10.4262 2.27713 12.7689 1.14181 15.5097C0.00649929 18.2506 -0.290551 21.2666 0.288227 24.1763C0.867006 27.0861 2.29562 29.7588 4.3934 31.8566C6.49119 33.9544 9.16394 35.383 12.0737 35.9618C14.9834 36.5405 17.9994 36.2435 20.7403 35.1082C23.4811 33.9729 25.8238 32.0503 27.472 29.5835C29.0276 27.2556 29.8986 24.5416 29.9917 21.7499C30.0009 21.4739 29.7761 21.25 29.5 21.25H28Z" fill="white"/>
<path d="M18.4949 26.996C17.955 27.0082 17.4195 26.9036 16.9309 26.6903C16.4971 26.4863 16.1238 26.1871 15.8435 25.8187C15.5362 25.3889 15.3205 24.9086 15.2081 24.4037C15.0637 23.7788 14.9941 23.141 15.0004 22.502C14.9954 21.863 15.0651 21.2253 15.2081 20.6002C15.3228 20.096 15.5383 19.6161 15.8435 19.1852C16.1238 18.8168 16.4971 18.5176 16.9309 18.3136C17.4195 18.1004 17.955 17.9957 18.4949 18.008C19.0025 17.9722 19.5116 18.0574 19.9736 18.2556C20.4356 18.4537 20.8351 18.7582 21.1341 19.14C21.7641 20.1439 22.0616 21.2973 21.9894 22.4567C22.0616 23.6161 21.7641 24.7695 21.1341 25.7734C20.8465 26.1718 20.4519 26.4941 19.9892 26.7084C19.5265 26.9228 19.0115 27.0219 18.4949 26.996V26.996ZM18.4949 25.6149C18.7412 25.6286 18.9867 25.5773 19.2029 25.4672C19.4191 25.357 19.5973 25.1924 19.7167 24.9923C20.0088 24.4629 20.1635 23.8776 20.1688 23.283V21.7209C20.1953 21.137 20.0739 20.5556 19.8145 20.0229C19.6779 19.829 19.4913 19.6698 19.2716 19.5596C19.0518 19.4493 18.8059 19.3916 18.556 19.3916C18.3061 19.3916 18.0602 19.4493 17.8404 19.5596C17.6207 19.6698 17.4341 19.829 17.2975 20.0229C17.0381 20.5556 16.9167 21.137 16.9431 21.7209V23.283C16.9179 23.8705 17.0392 24.4554 17.2975 24.9923C17.414 25.1897 17.5881 25.3527 17.7998 25.4628C18.0115 25.5728 18.2524 25.6256 18.4949 25.6149V25.6149Z" fill="white"/>
<path d="M8.44245 27V25.6261H10.6007V19.5834L8.59353 20.7477L8 19.5136L10.5036 18H12.0791V25.5679H14V27H8.44245Z" fill="white"/>
</svg>
