<svg width="30" height="37" viewBox="0 0 30 37" fill="none" xmlns="http://www.w3.org/2000/svg">
<path d="M2 21.25C2.27614 21.25 2.49895 21.474 2.50999 21.7499C2.60191 24.0469 3.32584 26.2778 4.60663 28.1946C5.98015 30.2502 7.93238 31.8524 10.2165 32.7985C12.5005 33.7446 15.0139 33.9921 17.4386 33.5098C19.8634 33.0275 22.0907 31.837 23.8388 30.0888C25.587 28.3407 26.7775 26.1134 27.2598 23.6886C27.7421 21.2639 27.4946 18.7505 26.5485 16.4665C25.6024 14.1824 24.0002 12.2301 21.9446 10.8566C19.889 9.48311 17.4723 8.75 15 8.75H10.5C10.2239 8.75 10 8.97386 10 9.25V13.7929C10 14.2383 9.46143 14.4614 9.14644 14.1464L2.85355 7.85355C2.65829 7.65829 2.65829 7.34171 2.85355 7.14645L9.14644 0.853553C9.46143 0.538571 10 0.761654 10 1.20711V5.75C10 6.02614 10.2239 6.25 10.5 6.25H15C17.9667 6.25 20.8668 7.12973 23.3335 8.77795C25.8003 10.4262 27.7229 12.7689 28.8582 15.5097C29.9935 18.2506 30.2906 21.2666 29.7118 24.1763C29.133 27.0861 27.7044 29.7588 25.6066 31.8566C23.5088 33.9544 20.8361 35.383 17.9263 35.9618C15.0166 36.5406 12.0006 36.2435 9.25974 35.1082C6.51885 33.9729 4.17618 32.0503 2.52795 29.5835C0.972448 27.2556 0.101402 24.5416 0.00832939 21.7499C-0.000871658 21.4739 0.223856 21.25 0.499998 21.25H2Z" fill="white"/>
<path d="M18.4949 26.996C17.955 27.0082 17.4195 26.9036 16.9309 26.6903C16.4971 26.4863 16.1238 26.1871 15.8435 25.8187C15.5362 25.3889 15.3205 24.9086 15.2081 24.4037C15.0637 23.7788 14.9941 23.141 15.0004 22.502C14.9954 21.863 15.0651 21.2253 15.2081 20.6002C15.3228 20.096 15.5383 19.6161 15.8435 19.1852C16.1238 18.8168 16.4971 18.5176 16.9309 18.3136C17.4195 18.1004 17.955 17.9957 18.4949 18.008C19.0025 17.9722 19.5116 18.0574 19.9736 18.2556C20.4356 18.4537 20.8351 18.7582 21.1341 19.14C21.7641 20.1439 22.0616 21.2973 21.9894 22.4567C22.0616 23.6161 21.7641 24.7695 21.1341 25.7734C20.8465 26.1718 20.4519 26.4941 19.9892 26.7084C19.5265 26.9228 19.0115 27.0219 18.4949 26.996ZM18.4949 25.6149C18.7412 25.6286 18.9867 25.5773 19.2029 25.4672C19.4191 25.357 19.5973 25.1924 19.7167 24.9923C20.0088 24.4629 20.1635 23.8776 20.1688 23.283V21.7209C20.1953 21.137 20.0739 20.5556 19.8145 20.0229C19.6779 19.829 19.4913 19.6698 19.2716 19.5596C19.0518 19.4493 18.8059 19.3916 18.556 19.3916C18.3061 19.3916 18.0602 19.4493 17.8404 19.5596C17.6207 19.6698 17.4341 19.829 17.2975 20.0229C17.0381 20.5556 16.9167 21.137 16.9431 21.7209V23.283C16.9179 23.8705 17.0392 24.4554 17.2975 24.9923C17.414 25.1897 17.5881 25.3527 17.7998 25.4628C18.0115 25.5728 18.2524 25.6256 18.4949 25.6149Z" fill="white"/>
<path d="M8.44245 27V25.6261H10.6007V19.5834L8.59353 20.7477L8 19.5136L10.5036 18H12.0791V25.5679H14V27H8.44245Z" fill="white"/>
</svg>
