<svg width="82" height="82" viewBox="0 0 82 82" fill="none" xmlns="http://www.w3.org/2000/svg">
<path d="M24.5345 43.7931C24.8106 43.7931 25.0336 44.0171 25.0427 44.293C25.1359 47.1188 26.0171 49.8661 27.5915 52.2224C29.2587 54.7175 31.6283 56.6622 34.4007 57.8106C37.1731 58.9589 40.2237 59.2594 43.1669 58.674C46.1101 58.0885 48.8135 56.6435 50.9354 54.5216C53.0573 52.3997 54.5024 49.6962 55.0878 46.7531C55.6732 43.8099 55.3728 40.7593 54.2244 37.9869C53.076 35.2145 51.1313 32.8449 48.6363 31.1777C46.1412 29.5105 43.2077 28.6207 40.2069 28.6207H34.638C34.3618 28.6207 34.138 28.8445 34.138 29.1207V34.9998C34.138 35.4452 33.5994 35.6683 33.2844 35.3533L25.3881 27.457C25.1928 27.2617 25.1928 26.9452 25.3881 26.7499L33.2844 18.8536C33.5994 18.5386 34.138 18.7617 34.138 19.2071V25.0862C34.138 25.3623 34.3618 25.5862 34.638 25.5862H40.2069C43.8079 25.5862 47.328 26.654 50.3221 28.6546C53.3162 30.6552 55.6499 33.4987 57.0279 36.8256C58.4059 40.1525 58.7665 43.8133 58.064 47.3451C57.3615 50.8769 55.6274 54.121 53.0811 56.6673C50.5349 59.2136 47.2907 60.9476 43.7589 61.6502C40.2271 62.3527 36.5663 61.9921 33.2394 60.6141C29.9126 59.236 27.069 56.9024 25.0684 53.9083C23.1605 51.0529 22.101 47.7192 22.0069 44.2931C21.9993 44.0171 22.2239 43.7931 22.5 43.7931H24.5345Z" fill="white"/>
<path d="M44.4489 50.7674C43.7936 50.7823 43.1436 50.6552 42.5506 50.3964C42.024 50.1488 41.5709 49.7856 41.2306 49.3384C40.8577 48.8167 40.5959 48.2338 40.4595 47.6209C40.2842 46.8624 40.1997 46.0883 40.2073 45.3126C40.2013 44.537 40.2858 43.763 40.4595 43.0043C40.5987 42.3922 40.8602 41.8097 41.2306 41.2868C41.5709 40.8396 42.024 40.4764 42.5506 40.2288C43.1436 39.97 43.7936 39.8429 44.4489 39.8578C45.0651 39.8144 45.683 39.9179 46.2438 40.1584C46.8045 40.3989 47.2895 40.7684 47.6524 41.2318C48.4171 42.4504 48.7781 43.8504 48.6905 45.2576C48.7781 46.6649 48.4171 48.0649 47.6524 49.2835C47.3033 49.7671 46.8244 50.1582 46.2627 50.4183C45.701 50.6785 45.076 50.7988 44.4489 50.7674V50.7674ZM44.4489 49.0911C44.7479 49.1077 45.0458 49.0455 45.3083 48.9117C45.5707 48.778 45.787 48.5782 45.932 48.3354C46.2864 47.6927 46.4743 46.9824 46.4807 46.2607V44.3645C46.5128 43.6559 46.3655 42.9501 46.0506 42.3035C45.8849 42.0682 45.6584 41.8749 45.3916 41.7411C45.1249 41.6073 44.8264 41.5373 44.5231 41.5373C44.2198 41.5373 43.9212 41.6073 43.6545 41.7411C43.3878 41.8749 43.1613 42.0682 42.9955 42.3035C42.6806 42.9501 42.5333 43.6559 42.5654 44.3645V46.2607C42.5348 46.9737 42.682 47.6836 42.9955 48.3354C43.137 48.5749 43.3482 48.7728 43.6052 48.9064C43.8622 49.04 44.1546 49.104 44.4489 49.0911V49.0911Z" fill="white"/>
<path d="M32.2474 50.7723V49.1047H34.8671V41.7701L32.4307 43.1833L31.7103 41.6853L34.7492 39.8481H36.6616V49.034H38.9931V50.7723H32.2474Z" fill="white"/>
</svg>
