<svg width="82" height="82" viewBox="0 0 82 82" fill="none" xmlns="http://www.w3.org/2000/svg">
<circle r="40.5937" transform="matrix(-1 0 0 1 40.9288 41.2281)" fill="black" fill-opacity="0.3"/>
<path d="M35.962 18.7307C35.0501 18.2042 33.7662 18.407 33.1486 19.4767L27.6104 29.0692C27.2084 29.7655 27.4471 30.6555 28.1431 31.0573L37.7224 36.5879C38.7928 37.2059 40.0072 36.7394 40.534 35.8268C40.7859 35.3906 40.8809 34.8524 40.7281 34.282L39.4751 29.6015C42.2088 29.1513 45.0639 29.6162 47.5261 31.0378C53.3178 34.3816 55.3112 41.817 51.9666 47.61C48.622 53.403 41.1902 55.3933 35.3978 52.0491C30.5891 49.2727 30.9716 46.1352 29.2846 45.1612C28.0696 44.4597 26.6117 44.9365 25.9695 46.0489C24.6394 48.3527 28.6611 53.7753 32.9616 56.2582C41.0748 60.9423 51.4973 58.1496 56.1814 50.0364C60.8656 41.9232 58.0603 31.518 49.9471 26.8339C46.3573 24.7613 42.1908 24.1432 38.2241 24.9098L36.9025 19.9714C36.7497 19.4011 36.396 18.9812 35.962 18.7307Z" fill="white"/>
</svg>
